<svg width="120" height="120" xmlns="http://www.w3.org/2000/svg">
  <!-- Background -->
  <circle cx="60" cy="60" r="55" fill="#f0f4ff"/>
  
  <!-- Speech bubble 1 -->
  <path d="M30,40 C25,40 20,45 20,50 L20,70 C20,75 25,80 30,80 L40,80 L40,90 L50,80 L70,80 C75,80 80,75 80,70 L80,50 C80,45 75,40 70,40 Z" 
        fill="#e8eaf6" stroke="#3f51b5" stroke-width="2"/>
  
  <!-- WhatsApp icon -->
  <g transform="translate(52, 60) scale(0.04)">
    <circle cx="256" cy="256" r="256" fill="#4CAF50"/>
    <path fill="#FAFAFA" d="M358.5,188.9c-7.5-33.3-33.4-61.1-66.4-71.2c-56.8-17.4-119.2,11.7-141,70.9c-10.7,29.1-4.8,62.5,12.7,87.3
    c2.4,3.4,3.2,7.8,1.9,11.8l-8.8,28.8l30-7.1c3.8-0.9,7.7,0,10.6,2.4c32.2,26,76.5,31.3,113.5,11.7C343.1,300.4,368.7,237.3,358.5,188.9z
    M334.7,290.2c-20.8,16.6-48.6,21.5-73.8,11.7c-5.9-2.3-6.8-1.3-25,8.3l-13.6,4.2l3.9-14.4c2.5-9.2-1-11.8-6.6-18.1
    c-40.7-45.5-12.3-116.6,46.7-116.6C322.4,165.3,367.7,264.2,334.7,290.2z M308.1,247.6l-5.2-2.3c0,0-17.5-8.5-20.4-9.5
    c-6.1-2-7.7-0.3-12.8,4.5c-2.9,2.7-6.9,7.3-9.2,9.8c-2,2.2-3.4,2.5-7,0.1l-21.8-11c-13.8-9.6-22.8-22.4-25.7-26.6
    c-2.9-4.2-0.3-7,1.7-10.1c4-6.2,9.3-13.3,9.3-13.3s2.5-3.1,1.5-7.6c-0.6-2.9-9.9-23.9-11.8-28.1c-4-8.5-7.7-7.2-10.9-7.2
    c-12.8,0-21.5,10-23.8,13.3c-13.1,18.1,1.6,43.3,4,48c2.5,4.7,32.4,54,78.7,75.1c46.4,21.1,54.8,14.8,62.5,13.3
    c7.7-1.6,25.4-10.4,28.9-21c3.5-10.6,3.5-19.8,2.5-21.7C316.6,251.4,313.2,249.7,308.1,247.6z"/>
  </g>
  
  <!-- Connection lines -->
  <line x1="40" y1="55" x2="60" y2="55" stroke="#3f51b5" stroke-width="2"/>
  <line x1="40" y1="65" x2="55" y2="65" stroke="#3f51b5" stroke-width="2"/>
</svg>