<svg width="120" height="120" xmlns="http://www.w3.org/2000/svg">
  <!-- Background -->
  <circle cx="60" cy="60" r="55" fill="#f0f4ff"/>
  
  <!-- Shield outline -->
  <path d="M60,20 L30,30 C30,65 45,85 60,95 C75,85 90,65 90,30 L60,20 Z" 
        fill="#e8eaf6" stroke="#3f51b5" stroke-width="3"/>
  
  <!-- Check mark -->
  <path d="M45,60 L55,70 L75,50" 
        fill="none" stroke="#3f51b5" stroke-width="5" stroke-linecap="round" stroke-linejoin="round"/>
        
  <!-- Stars -->
  <g fill="#ffc107">
    <polygon points="25,35 28,41 35,42 30,47 31,54 25,51 19,54 20,47 15,42 22,41" />
    <polygon points="95,35 98,41 105,42 100,47 101,54 95,51 89,54 90,47 85,42 92,41" />
  </g>
</svg>